# Blender 4.2.2 LTS
# www.blender.org
o Block_BMO.015_BMO_Tower_1.001_Cube.012
v -2.500005 -2.499998 -0.000000
v -2.500005 -2.499998 0.147116
v -2.500005 2.500001 0.147116
v -2.500005 2.500001 -0.000002
v 2.499995 2.500000 0.147113
v 2.499995 2.500000 -0.000004
v 2.499995 -2.499999 0.147115
v 2.499995 -2.499999 -0.000003
v -2.222228 -1.593577 0.148772
v -1.763751 -2.083332 0.148772
v -1.763751 -1.593578 0.148772
v -1.144134 -0.237926 21.399645
v -1.144134 -0.237926 24.999996
v -1.340551 -0.041508 24.999996
v -1.340551 -0.041508 21.399645
v -1.144134 0.154910 24.999996
v -1.144134 0.154911 21.399645
v -0.442871 1.072281 21.399645
v -0.442871 1.072281 24.999994
v -0.246453 1.268699 24.999994
v -0.246453 1.268699 21.399645
v -0.050035 1.072281 24.999994
v -0.050035 1.072281 21.399645
v -1.763751 -1.593581 21.546692
v -2.222228 -1.593581 21.546692
v -1.763751 -2.083335 21.546692
v 1.728314 -2.083336 0.148771
v 1.728316 -2.083338 21.546692
v -1.763760 1.619947 21.546619
v -2.222221 1.619947 21.546692
v 1.736035 -1.593588 21.546692
v 1.728309 1.619944 21.546688
v 2.222220 -1.593578 21.546692
v 2.222218 1.619948 21.546688
v -1.142863 1.071427 21.546692
v -1.142863 -1.071430 21.546692
v -1.142863 -1.071430 22.576525
v -1.142863 1.071427 22.576523
v 1.728311 2.083332 21.546688
v -1.763750 2.083329 21.546692
v -2.222223 1.619947 0.148771
v -1.763753 1.619951 0.148771
v -1.763750 2.083332 0.148771
v 1.728311 2.083335 0.148770
v 1.728311 1.619950 0.148770
v 2.222216 1.619950 0.148770
v 2.222218 -1.593575 0.148771
v 1.728311 -1.593578 0.148771
v 1.736035 -1.593578 0.148771
v 1.142851 1.071427 21.546688
v 1.142851 -1.071430 21.546692
v 1.142851 1.071427 22.576523
v 1.142851 -1.071430 22.576523
vn -1.0000 -0.0000 -0.0000
vn -0.0000 1.0000 -0.0000
vn 1.0000 -0.0000 -0.0000
vn -0.0000 -1.0000 -0.0000
vn -0.0000 -0.0000 -1.0000
vn -0.0015 -0.0007 1.0000
vn -0.0010 -0.0012 1.0000
vn -0.0000 -0.0000 1.0000
vn -0.7071 -0.7071 -0.0000
vn -0.7071 0.7071 -0.0000
vn 0.7071 0.7071 -0.0000
vn -0.0000 -0.0001 1.0000
vn 0.9999 -0.0155 -0.0004
vn 1.0000 -0.0002 -0.0000
vn 0.9999 -0.0158 -0.0004
vn -0.0001 0.0001 1.0000
vn -0.0049 0.0014 1.0000
vn -0.0050 -0.0015 1.0000
vn -0.0016 0.0009 1.0000
vn -0.0010 0.0011 1.0000
vn 0.0007 0.0011 1.0000
vn 0.0049 0.0015 1.0000
vn 0.0015 0.0008 1.0000
vn 0.0014 -0.0007 1.0000
vn 0.0049 -0.0016 1.0000
vn 0.0007 -0.0011 1.0000
vn 0.0002 -0.0000 1.0000
vt 0.821200 0.742500
vt 0.814900 0.495000
vt 0.821200 0.495000
vt 0.808700 0.495000
vt 0.814900 0.742500
vt 0.808700 0.742500
vt 0.814900 0.990100
vt 0.827400 0.495000
vt 0.828500 0.495000
vt 0.603500 0.247500
vt 0.828500 0.247500
vt 0.787700 0.013800
vt 0.809800 0.036400
vt 0.787700 0.036400
vt 0.708700 0.996400
vt 0.699800 0.828200
vt 0.708700 0.828200
vt 0.691000 0.828200
vt 0.699800 0.996400
vt 0.691000 0.996400
vt 0.805100 0.883300
vt 0.787400 0.715000
vt 0.805100 0.715000
vt 0.730000 0.841900
vt 0.717500 0.828200
vt 0.730000 0.828200
vt 0.738900 0.828200
vt 0.738900 0.847600
vt 0.730000 0.837900
vt 0.806100 0.742500
vt 0.814900 0.910800
vt 0.806100 0.910800
vt 0.717500 0.996400
vt 0.808700 0.663300
vt 0.791000 0.495000
vt 0.761400 0.828200
vt 0.761400 0.847600
vt 0.752500 0.837900
vt 0.752500 0.828200
vt 0.752500 0.847600
vt 0.743700 0.837900
vt 0.979400 1.000000
vt 0.958700 0.000000
vt 0.979400 0.000000
vt 0.000000 0.000000
vt 0.157100 1.000000
vt 0.000000 1.000000
vt 0.624400 0.517700
vt 0.769000 0.495000
vt 0.769000 0.517700
vt 0.791000 0.690600
vt 0.769000 0.691000
vt 0.624400 0.715000
vt 0.624400 0.690600
vt 0.603500 0.828200
vt 0.647300 0.934300
vt 0.603500 0.934300
vt 0.603500 0.517700
vt 0.458900 0.000000
vt 0.314300 1.000000
vt 0.314300 0.000000
vt 0.895000 0.000000
vt 0.917000 1.000000
vt 0.895000 1.000000
vt 1.000000 0.000000
vt 1.000000 1.000000
vt 0.937900 0.000000
vt 0.958700 1.000000
vt 0.937900 1.000000
vt 0.917000 0.000000
vt 0.850700 0.000000
vt 0.828500 1.000000
vt 0.828500 0.000000
vt 0.603500 1.000000
vt 0.458900 1.000000
vt 0.851100 0.000000
vt 0.851100 1.000000
vt 0.873000 1.000000
vt 0.873000 0.000000
vt 0.649000 0.661600
vt 0.649000 0.548500
vt 0.745500 0.548500
vt 0.745500 0.661600
vt 0.699900 0.828200
vt 0.603500 0.715000
vt 0.699900 0.715000
vt 0.743700 0.715000
vt 0.743700 0.828200
vt 0.647300 0.828200
vt 0.787400 0.828200
vt 0.603500 0.000000
vt 0.643100 0.013800
vt 0.622300 0.036400
vt 0.622300 0.209300
vt 0.643100 0.233800
vt 0.787700 0.233800
vt 0.809800 0.209300
vt 0.787700 0.209300
vt 0.821200 0.990100
vt 0.827400 0.742500
vt 0.603500 0.495000
vt 0.787400 0.883300
vt 0.791000 0.663300
vt 0.157100 0.000000
vt 0.624400 0.495000
vt 0.791000 0.517700
vt 0.769000 0.715000
vt 0.603500 0.690600
vt 0.850700 1.000000
vt 0.691000 0.934300
vt 0.643100 0.036400
vt 0.643100 0.209300
s 1
f 1/1/1 3/2/1 4/3/1
f 4/4/2 5/5/2 6/6/2
f 5/1/3 8/7/3 6/5/3
f 7/8/4 1/1/4 8/3/4
f 6/9/5 1/10/5 4/11/5
f 9/12/6 10/13/7 11/14/8
f 13/15/9 15/16/9 12/17/9
f 14/18/10 17/19/10 15/20/10
f 16/21/3 12/22/3 17/23/3
f 13/24/8 16/25/8 14/26/8
f 17/27/5 12/28/5 15/29/5
f 19/30/10 21/31/10 18/32/10
f 20/17/11 23/33/11 21/15/11
f 22/34/4 18/35/4 23/4/4
f 19/36/8 22/37/8 20/38/8
f 23/39/5 18/40/5 21/41/5
f 24/42/4 9/43/4 11/44/4
f 10/45/4 28/46/4 26/47/4
f 29/48/8 25/49/8 24/50/8
f 24/50/8 28/51/8 31/52/8
f 31/52/8 34/53/8 32/54/8
f 36/55/1 38/56/1 35/57/1
f 32/54/8 40/58/12 29/48/8
f 30/59/1 9/60/1 25/61/1
f 26/62/1 11/63/1 10/64/1
f 29/42/2 41/65/2 30/66/2
f 29/67/1 43/68/1 42/69/1
f 39/46/2 43/61/2 40/60/2
f 45/70/3 39/69/3 32/63/3
f 34/71/2 45/72/2 32/73/2
f 34/59/3 47/74/3 46/75/3
f 48/71/4 49/76/4 31/77/4
f 28/62/13 48/78/14 31/79/15
f 50/80/8 31/52/8 32/54/8
f 35/81/16 24/50/8 36/82/8
f 36/82/8 31/52/8 51/83/8
f 35/81/16 32/54/8 29/48/8
f 38/84/8 53/85/8 52/86/8
f 36/84/4 53/87/4 37/88/4
f 51/18/3 52/56/3 53/89/3
f 35/90/2 52/87/2 50/22/2
f 9/12/6 3/91/17 2/73/18
f 41/92/19 43/93/20 3/91/17
f 3/91/17 44/94/21 5/10/22
f 44/94/21 46/95/23 5/10/22
f 5/10/22 47/96/24 7/11/25
f 27/97/26 47/96/24 48/98/8
f 27/97/26 2/73/18 7/11/25
f 1/1/1 2/5/1 3/2/1
f 4/4/2 3/2/2 5/5/2
f 5/1/3 7/99/3 8/7/3
f 7/8/4 2/100/4 1/1/4
f 6/9/5 8/101/5 1/10/5
f 9/12/6 2/73/18 10/13/7
f 13/15/9 14/19/9 15/16/9
f 14/18/10 16/16/10 17/19/10
f 16/21/3 13/102/3 12/22/3
f 19/30/10 20/5/10 21/31/10
f 20/17/11 22/25/11 23/33/11
f 22/34/4 19/103/4 18/35/4
f 24/42/4 25/68/4 9/43/4
f 10/45/4 27/104/4 28/46/4
f 29/48/8 30/105/27 25/49/8
f 24/50/8 26/106/8 28/51/8
f 31/52/8 33/107/8 34/53/8
f 36/55/1 37/89/1 38/56/1
f 32/54/8 39/108/8 40/58/12
f 30/59/1 41/75/1 9/60/1
f 26/62/1 24/70/1 11/63/1
f 29/42/2 42/44/2 41/65/2
f 29/67/1 40/43/1 43/68/1
f 39/46/2 44/104/2 43/61/2
f 45/70/3 44/67/3 39/69/3
f 34/71/2 46/109/2 45/72/2
f 34/59/3 33/91/3 47/74/3
f 33/78/4 31/77/4 49/76/4
f 49/76/4 47/79/4 33/78/4
f 28/62/13 27/64/3 48/78/14
f 50/80/8 51/83/8 31/52/8
f 35/81/16 29/48/8 24/50/8
f 36/82/8 24/50/8 31/52/8
f 35/81/16 50/80/8 32/54/8
f 38/84/8 37/55/8 53/85/8
f 36/84/4 51/86/4 53/87/4
f 51/18/3 50/110/3 52/56/3
f 35/90/2 38/88/2 52/87/2
f 9/12/6 41/92/19 3/91/17
f 41/92/19 42/111/8 43/93/20
f 3/91/17 43/93/20 44/94/21
f 44/94/21 45/112/8 46/95/23
f 5/10/22 46/95/23 47/96/24
f 27/97/26 7/11/25 47/96/24
f 27/97/26 10/13/7 2/73/18
